<svg width="21" height="20" viewBox="0 0 21 20" fill="none" xmlns="http://www.w3.org/2000/svg">
<path d="M10.474 0.499541C4.94901 0.514666 0.48597 4.88857 0.500696 10.268C0.512481 14.5726 3.38746 18.2152 7.36347 19.4913C7.86372 19.5816 8.04623 19.2796 8.04552 19.0211C8.04489 18.7898 8.03488 18.1768 8.02849 17.3648C5.24844 17.9598 4.65659 16.0672 4.65659 16.0672C4.19851 14.9442 3.54019 14.6453 3.54019 14.6453C2.63271 14.0439 3.60857 14.0536 3.60857 14.0536C4.61292 14.1186 5.14298 15.0531 5.14298 15.0531C6.03872 16.5401 7.4867 16.1057 8.05769 15.8555C8.14596 15.225 8.40229 14.7955 8.68745 14.5511C6.46596 14.3134 4.12951 13.4822 4.11929 9.75001C4.11638 8.68685 4.5015 7.81676 5.1413 7.1335C5.02813 6.88764 4.68792 5.8981 5.22174 4.55509C5.22174 4.55509 6.05852 4.29176 7.97447 5.54628C8.77387 5.32766 9.62357 5.21795 10.4736 5.21066C11.3236 5.21329 12.1739 5.31836 12.9744 5.5326C14.871 4.26764 15.7092 4.52638 15.7092 4.52638C16.2504 5.86645 15.9156 6.85783 15.8163 7.10428C16.4556 7.78404 16.8455 8.65201 16.8484 9.71516C16.8587 13.4573 14.5234 14.2873 12.2991 14.5329C12.6499 14.8244 12.9765 15.4207 12.979 16.3335C12.9826 17.6371 12.973 18.6846 12.9738 19.001C12.9745 19.2562 13.1503 19.5606 13.6626 19.4617C17.6599 18.172 20.5124 14.5113 20.5006 10.2132C20.4859 4.83382 15.9965 0.484423 10.474 0.499541Z" fill="#212121"/>
</svg>
