<svg width="22" height="22" viewBox="0 0 22 22" fill="none" xmlns="http://www.w3.org/2000/svg">
<path d="M14.8331 1.03152L7.33331 0.969165C3.88218 0.940471 1.06026 3.71586 1.03156 7.16699L0.969207 14.6667C0.940513 18.1179 3.7159 20.9398 7.16703 20.9685L14.6668 21.0308C18.1179 21.0595 20.9398 18.2841 20.9685 14.833L21.0309 7.33327C21.0596 3.88214 18.2842 1.06022 14.8331 1.03152ZM19.0936 14.8174C19.0735 17.2298 17.0948 19.176 14.6824 19.1559L7.18262 19.0935C4.7702 19.0735 2.82408 17.0947 2.84414 14.6823L2.9065 7.18257C2.92656 4.77016 4.90531 2.82404 7.31772 2.8441L14.8175 2.90646C17.2299 2.92651 19.176 4.90526 19.1559 7.31768L19.0936 14.8174Z" fill="black"/>
<path d="M6.00003 11C6.00003 13.7612 8.23878 16 11 16C13.7613 16 16 13.7612 16 11C16 8.23872 13.7613 5.99997 11 5.99997C8.23878 5.99997 6.00003 8.23872 6.00003 11ZM14.125 11C14.125 12.7225 12.7225 14.125 11 14.125C9.27628 14.125 7.87503 12.7225 7.87503 11C7.87503 9.27747 9.27628 7.87497 11 7.87497C12.7225 7.87497 14.125 9.27747 14.125 11Z" fill="black"/>
<path d="M17.3325 6.66625C17.3325 6.29829 17.0342 6 16.6662 6C16.2983 6 16 6.29829 16 6.66625C16 7.03421 16.2983 7.3325 16.6662 7.3325C17.0342 7.3325 17.3325 7.03421 17.3325 6.66625Z" fill="black"/>
</svg>
