<svg width="64" height="57" viewBox="0 0 64 57" fill="none" xmlns="http://www.w3.org/2000/svg">
<path d="M52.5381 18.5166C51.8789 18.2885 51.1958 18.0728 50.4924 17.8688C50.608 17.3947 50.7141 16.9267 50.8085 16.4667C52.357 8.91334 51.3445 2.82827 47.887 0.824814C44.5718 -1.09624 39.1499 0.906766 33.674 5.69525C33.1475 6.15571 32.6194 6.64322 32.0916 7.15414C31.7399 6.8161 31.3888 6.48943 31.0386 6.17696C25.2998 1.0568 19.5474 -1.1009 16.0934 0.908358C12.7813 2.83498 11.8004 8.55552 13.1944 15.7139C13.329 16.4053 13.4863 17.1114 13.6643 17.8293C12.8501 18.0616 12.0642 18.3091 11.3122 18.5725C4.584 20.9296 0.287079 24.6237 0.287079 28.4554C0.287079 32.4129 4.89983 36.3823 11.9078 38.7892C12.4608 38.9791 13.0346 39.1587 13.626 39.3292C13.4341 40.1057 13.2671 40.8665 13.1269 41.6086C11.7978 48.6428 12.8358 54.2282 16.1391 56.1427C19.5511 58.1197 25.2774 56.0875 30.8533 51.1899C31.294 50.8028 31.7363 50.3922 32.1794 49.9619C32.7537 50.5176 33.3271 51.0435 33.8974 51.5368C39.2984 56.207 44.6327 58.0928 47.933 56.173C51.3416 54.1902 52.4493 48.1902 51.0112 40.8902C50.9013 40.3326 50.7735 39.7631 50.6299 39.1834C51.0321 39.0639 51.4269 38.9406 51.8118 38.8124C59.0972 36.3869 63.8373 32.4658 63.8373 28.4554C63.8373 24.6098 59.4018 20.8908 52.5381 18.5166Z" fill="#53C1DE"/>
<path d="M50.958 36.2229C50.6105 36.3385 50.2539 36.4502 49.8906 36.5586C49.0863 34.0001 48.0009 31.2795 46.6725 28.4687C47.9401 25.7248 48.9836 23.039 49.7654 20.4971C50.4155 20.6861 51.0465 20.8855 51.6545 21.0959C57.5353 23.1302 61.1225 26.1379 61.1225 28.4554C61.1225 30.924 57.2484 34.1285 50.958 36.2229ZM48.3479 41.4199C48.9838 44.6479 49.0747 47.5663 48.6534 49.8478C48.2749 51.8979 47.5138 53.2647 46.5726 53.8121C44.5698 54.977 40.287 53.4628 35.668 49.4689C35.1385 49.011 34.6051 48.5222 34.0701 48.0048C35.8607 46.0369 37.6504 43.7491 39.397 41.2084C42.4692 40.9344 45.3717 40.4866 48.0039 39.8752C48.1335 40.4007 48.2487 40.916 48.3479 41.4199ZM21.9528 53.6108C19.9961 54.3052 18.4376 54.3251 17.4956 53.7793C15.491 52.6175 14.6577 48.133 15.7944 42.1174C15.9246 41.4284 16.0796 40.7208 16.2582 39.9974C18.8615 40.5758 21.7427 40.9921 24.8223 41.2429C26.5807 43.7291 28.4221 46.0144 30.2777 48.0153C29.8722 48.4086 29.4684 48.783 29.0668 49.1358C26.6012 51.3015 24.1303 52.838 21.9528 53.6108ZM12.7858 36.2078C9.68701 35.1436 7.12793 33.7604 5.3738 32.251C3.79761 30.8946 3.00182 29.548 3.00182 28.4554C3.00182 26.1301 6.45182 23.1643 12.2058 21.1484C12.904 20.9038 13.6349 20.6733 14.3933 20.4568C15.1885 23.0561 16.2317 25.7737 17.4906 28.5218C16.2154 31.3107 15.1574 34.0716 14.3544 36.7013C13.8137 36.5452 13.2898 36.3808 12.7858 36.2078ZM15.8587 15.19C14.6643 9.05685 15.4575 4.43022 17.4535 3.26925C19.5796 2.03246 24.2809 3.79586 29.2359 8.21686C29.5527 8.49943 29.8707 8.79519 30.1895 9.10118C28.3431 11.0934 26.5186 13.3615 24.7758 15.833C21.787 16.1114 18.926 16.5585 16.2955 17.1573C16.1301 16.4888 15.9836 15.8321 15.8587 15.19ZM43.2714 21.9916C42.6425 20.9002 41.997 19.8346 41.3388 18.7981C43.3665 19.0556 45.3092 19.3975 47.1336 19.8159C46.5858 21.5798 45.9032 23.424 45.0996 25.3146C44.5231 24.2149 43.9134 23.1061 43.2714 21.9916ZM32.0925 11.0508C33.3447 12.4139 34.5988 13.9359 35.8322 15.5872C34.5893 15.5283 33.3309 15.4976 32.0622 15.4976C30.8055 15.4976 29.5564 15.5276 28.3212 15.5855C29.5558 13.9496 30.8207 12.4296 32.0925 11.0508ZM20.8421 22.0105C20.2139 23.1049 19.6155 24.2077 19.0481 25.3125C18.2576 23.4285 17.5812 21.5759 17.0287 19.7871C18.8419 19.3793 20.7755 19.046 22.7902 18.7933C22.1228 19.8393 21.4719 20.913 20.8421 22.0105ZM22.8482 38.3121C20.7666 38.0787 18.804 37.7625 16.9913 37.366C17.5526 35.5452 18.2439 33.6531 19.0512 31.7285C19.6201 32.8325 20.2208 33.9357 20.8528 35.0326C21.4966 36.1501 22.1637 37.2447 22.8482 38.3121ZM32.1676 46.0523C30.8809 44.6573 29.5975 43.1142 28.344 41.4543C29.5608 41.5023 30.8014 41.5269 32.0622 41.5269C33.3575 41.5269 34.638 41.4975 35.8984 41.4412C34.6609 43.1309 33.4114 44.6764 32.1676 46.0523ZM45.1255 31.6304C45.9749 33.5758 46.6909 35.4581 47.2595 37.2478C45.4169 37.6702 43.4275 38.0104 41.3314 38.2632C41.9911 37.2127 42.6423 36.1288 43.2822 35.0139C43.9296 33.8858 44.5443 32.7561 45.1255 31.6304ZM40.9306 33.651C39.9372 35.3818 38.9173 37.034 37.8819 38.5936C35.9961 38.7291 34.0479 38.7989 32.0622 38.7989C30.0846 38.7989 28.1609 38.7372 26.3084 38.6164C25.2313 37.0363 24.1893 35.3792 23.2022 33.6659C22.2177 31.9573 21.3119 30.2342 20.4909 28.5209C21.3116 26.8035 22.2154 25.0785 23.1942 23.373C24.1756 21.6629 25.2082 20.0142 26.2754 18.444C28.1654 18.3004 30.1035 18.2255 32.0621 18.2255C34.0296 18.2255 35.9702 18.301 37.8597 18.4458C38.9105 20.0045 39.9364 21.6482 40.9217 23.3585C41.9181 25.0881 42.8335 26.8016 43.6613 28.4821C42.836 30.1915 41.9226 31.9223 40.9306 33.651ZM46.531 3.18809C48.6591 4.42124 49.4867 9.39454 48.1496 15.9161C48.0643 16.3322 47.9683 16.7561 47.864 17.1856C45.2274 16.5743 42.3644 16.1194 39.3668 15.8369C37.6206 13.3382 35.8111 11.0666 33.9947 9.09993C34.4831 8.62787 34.9707 8.17776 35.4563 7.75299C40.148 3.65025 44.5331 2.03041 46.531 3.18809Z" fill="#D5DAD8"/>
<path d="M32.0622 22.7532C35.1963 22.7532 37.737 25.3061 37.737 28.4554C37.737 31.6046 35.1963 34.1576 32.0622 34.1576C28.9281 34.1576 26.3874 31.6046 26.3874 28.4554C26.3874 25.3061 28.9281 22.7532 32.0622 22.7532Z" fill="#53C1DE"/>
</svg>
